# xmcd
#
# Track frame offsets:
#	150
#	13806
#	28314
#	38810
#	60409
#
# Disc length: 1003 seconds
#
# Revision: 0
# Processed by: cddbd v1.5.2PL0 Copyright (c) Steve Scherf et al.
# Submitted via: EasyCDDAExtractor 5.0.2.1
#
DISCID=3a03e905
DTITLE=Black Cassette - Black Cassette EP
DYEAR=2007
DGENRE=Blues
TTITLE0=Oh My
TTITLE1=Gotta Move
TTITLE2=Funny
TTITLE3=Presence
TTITLE4=Family Friend
EXTD=
EXTT0=
EXTT1=
EXTT2=
EXTT3=
EXTT4=
PLAYORDER=
